<mxfile host="Electron" modified="2024-03-24T08:42:47.990Z" agent="Mozilla/5.0 (Windows NT 10.0; Win64; x64) AppleWebKit/537.36 (KHTML, like Gecko) draw.io/24.0.4 Chrome/120.0.6099.109 Electron/28.1.0 Safari/537.36" etag="zqFkbOtn9ePmmKvyVdjQ" version="24.0.4" type="device">
  <diagram name="Page-1" id="hVjh-1lcR9AbKfI0PiSr">
    <mxGraphModel dx="1114" dy="720" grid="1" gridSize="10" guides="1" tooltips="1" connect="1" arrows="1" fold="1" page="1" pageScale="1" pageWidth="850" pageHeight="1100" math="0" shadow="0">
      <root>
        <mxCell id="0" />
        <mxCell id="1" parent="0" />
        <mxCell id="bn8k4Fqg-3GPeQ3cdz_c-63" value="Musteri" style="rounded=0;whiteSpace=wrap;html=1;" parent="1" vertex="1">
          <mxGeometry x="110" y="255" width="120" height="60" as="geometry" />
        </mxCell>
        <mxCell id="bn8k4Fqg-3GPeQ3cdz_c-65" value="Adres" style="ellipse;whiteSpace=wrap;html=1;" parent="1" vertex="1">
          <mxGeometry y="290" width="80" height="30" as="geometry" />
        </mxCell>
        <mxCell id="bn8k4Fqg-3GPeQ3cdz_c-66" value="Ad" style="ellipse;whiteSpace=wrap;html=1;" parent="1" vertex="1">
          <mxGeometry x="10" y="247.5" width="80" height="30" as="geometry" />
        </mxCell>
        <mxCell id="bn8k4Fqg-3GPeQ3cdz_c-67" value="&lt;u&gt;CustomerID&lt;/u&gt;" style="ellipse;whiteSpace=wrap;html=1;" parent="1" vertex="1">
          <mxGeometry x="30" y="200" width="80" height="30" as="geometry" />
        </mxCell>
        <mxCell id="bn8k4Fqg-3GPeQ3cdz_c-68" value="E-post" style="ellipse;whiteSpace=wrap;html=1;" parent="1" vertex="1">
          <mxGeometry y="330" width="80" height="30" as="geometry" />
        </mxCell>
        <mxCell id="bn8k4Fqg-3GPeQ3cdz_c-70" value="" style="endArrow=none;html=1;rounded=0;entryX=1;entryY=1;entryDx=0;entryDy=0;" parent="1" source="bn8k4Fqg-3GPeQ3cdz_c-63" target="bn8k4Fqg-3GPeQ3cdz_c-67" edge="1">
          <mxGeometry width="50" height="50" relative="1" as="geometry">
            <mxPoint x="110" y="270" as="sourcePoint" />
            <mxPoint x="160" y="220" as="targetPoint" />
          </mxGeometry>
        </mxCell>
        <mxCell id="bn8k4Fqg-3GPeQ3cdz_c-71" value="" style="endArrow=none;html=1;rounded=0;entryX=0;entryY=0.5;entryDx=0;entryDy=0;exitX=1;exitY=0.5;exitDx=0;exitDy=0;" parent="1" source="bn8k4Fqg-3GPeQ3cdz_c-66" target="bn8k4Fqg-3GPeQ3cdz_c-63" edge="1">
          <mxGeometry width="50" height="50" relative="1" as="geometry">
            <mxPoint x="100" y="300" as="sourcePoint" />
            <mxPoint x="140" y="355" as="targetPoint" />
          </mxGeometry>
        </mxCell>
        <mxCell id="bn8k4Fqg-3GPeQ3cdz_c-72" value="" style="endArrow=none;html=1;rounded=0;exitX=1;exitY=0;exitDx=0;exitDy=0;" parent="1" source="bn8k4Fqg-3GPeQ3cdz_c-65" target="bn8k4Fqg-3GPeQ3cdz_c-63" edge="1">
          <mxGeometry width="50" height="50" relative="1" as="geometry">
            <mxPoint x="80" y="320" as="sourcePoint" />
            <mxPoint x="140" y="310" as="targetPoint" />
          </mxGeometry>
        </mxCell>
        <mxCell id="bn8k4Fqg-3GPeQ3cdz_c-73" value="" style="endArrow=none;html=1;rounded=0;exitX=1;exitY=0;exitDx=0;exitDy=0;" parent="1" source="bn8k4Fqg-3GPeQ3cdz_c-68" target="bn8k4Fqg-3GPeQ3cdz_c-63" edge="1">
          <mxGeometry width="50" height="50" relative="1" as="geometry">
            <mxPoint x="110" y="380" as="sourcePoint" />
            <mxPoint x="160" y="330" as="targetPoint" />
          </mxGeometry>
        </mxCell>
        <mxCell id="bn8k4Fqg-3GPeQ3cdz_c-74" value="Urun" style="rounded=0;whiteSpace=wrap;html=1;flipV=1;flipH=1;" parent="1" vertex="1">
          <mxGeometry x="660" y="262.5" width="110" height="40" as="geometry" />
        </mxCell>
        <mxCell id="bn8k4Fqg-3GPeQ3cdz_c-75" value="Baslik" style="ellipse;whiteSpace=wrap;html=1;flipV=1;flipH=1;" parent="1" vertex="1">
          <mxGeometry x="680" y="170" width="80" height="30" as="geometry" />
        </mxCell>
        <mxCell id="bn8k4Fqg-3GPeQ3cdz_c-77" value="Fiyat" style="ellipse;whiteSpace=wrap;html=1;flipV=1;flipH=1;" parent="1" vertex="1">
          <mxGeometry x="740" y="192.5" width="80" height="30" as="geometry" />
        </mxCell>
        <mxCell id="bn8k4Fqg-3GPeQ3cdz_c-78" value="" style="endArrow=none;html=1;rounded=0;entryX=0.229;entryY=0.023;entryDx=0;entryDy=0;entryPerimeter=0;" parent="1" source="bn8k4Fqg-3GPeQ3cdz_c-74" target="bn8k4Fqg-3GPeQ3cdz_c-122" edge="1">
          <mxGeometry width="50" height="50" relative="1" as="geometry">
            <mxPoint x="456.72551724138657" y="405.34482758620925" as="sourcePoint" />
            <mxPoint x="615" y="180" as="targetPoint" />
          </mxGeometry>
        </mxCell>
        <mxCell id="bn8k4Fqg-3GPeQ3cdz_c-80" value="" style="endArrow=none;html=1;rounded=0;exitX=0.5;exitY=1;exitDx=0;exitDy=0;" parent="1" source="bn8k4Fqg-3GPeQ3cdz_c-75" target="bn8k4Fqg-3GPeQ3cdz_c-74" edge="1">
          <mxGeometry width="50" height="50" relative="1" as="geometry">
            <mxPoint x="448.96551724138226" y="487.97815378025143" as="sourcePoint" />
            <mxPoint x="388.96551724138226" y="497.97815378025143" as="targetPoint" />
          </mxGeometry>
        </mxCell>
        <mxCell id="bn8k4Fqg-3GPeQ3cdz_c-81" value="" style="endArrow=none;html=1;rounded=0;exitX=0;exitY=1;exitDx=0;exitDy=0;" parent="1" source="bn8k4Fqg-3GPeQ3cdz_c-77" target="bn8k4Fqg-3GPeQ3cdz_c-74" edge="1">
          <mxGeometry width="50" height="50" relative="1" as="geometry">
            <mxPoint x="480.2486129643971" y="504.6551724137921" as="sourcePoint" />
            <mxPoint x="430.2486129643971" y="554.6551724137921" as="targetPoint" />
          </mxGeometry>
        </mxCell>
        <mxCell id="bn8k4Fqg-3GPeQ3cdz_c-91" value="Order" style="rounded=0;whiteSpace=wrap;html=1;flipV=1;flipH=1;" parent="1" vertex="1">
          <mxGeometry x="492.11" y="520" width="110" height="40" as="geometry" />
        </mxCell>
        <mxCell id="bn8k4Fqg-3GPeQ3cdz_c-92" value="TotalAmount" style="ellipse;whiteSpace=wrap;html=1;flipV=1;flipH=1;" parent="1" vertex="1">
          <mxGeometry x="392.11" y="570" width="70" height="30" as="geometry" />
        </mxCell>
        <mxCell id="bn8k4Fqg-3GPeQ3cdz_c-93" value="OrderDate" style="ellipse;whiteSpace=wrap;html=1;flipV=1;flipH=1;" parent="1" vertex="1">
          <mxGeometry x="522.11" y="600" width="60" height="30" as="geometry" />
        </mxCell>
        <mxCell id="bn8k4Fqg-3GPeQ3cdz_c-94" value="&lt;u&gt;OrderID&lt;/u&gt;" style="ellipse;whiteSpace=wrap;html=1;flipV=1;flipH=1;" parent="1" vertex="1">
          <mxGeometry x="590" y="595" width="85" height="35" as="geometry" />
        </mxCell>
        <mxCell id="bn8k4Fqg-3GPeQ3cdz_c-95" value="" style="endArrow=none;html=1;rounded=0;entryX=0.5;entryY=0;entryDx=0;entryDy=0;exitX=0.75;exitY=1;exitDx=0;exitDy=0;" parent="1" source="bn8k4Fqg-3GPeQ3cdz_c-91" target="bn8k4Fqg-3GPeQ3cdz_c-94" edge="1">
          <mxGeometry width="50" height="50" relative="1" as="geometry">
            <mxPoint x="592.11" y="500" as="sourcePoint" />
            <mxPoint x="610.005" y="577.1700000000001" as="targetPoint" />
          </mxGeometry>
        </mxCell>
        <mxCell id="bn8k4Fqg-3GPeQ3cdz_c-96" value="" style="endArrow=none;html=1;rounded=0;entryX=0.5;entryY=1;entryDx=0;entryDy=0;exitX=0.629;exitY=0.911;exitDx=0;exitDy=0;exitPerimeter=0;" parent="1" source="bn8k4Fqg-3GPeQ3cdz_c-93" target="bn8k4Fqg-3GPeQ3cdz_c-91" edge="1">
          <mxGeometry width="50" height="50" relative="1" as="geometry">
            <mxPoint x="372.11" y="505" as="sourcePoint" />
            <mxPoint x="332.11" y="450" as="targetPoint" />
          </mxGeometry>
        </mxCell>
        <mxCell id="bn8k4Fqg-3GPeQ3cdz_c-97" value="" style="endArrow=none;html=1;rounded=0;" parent="1" source="bn8k4Fqg-3GPeQ3cdz_c-92" target="bn8k4Fqg-3GPeQ3cdz_c-91" edge="1">
          <mxGeometry width="50" height="50" relative="1" as="geometry">
            <mxPoint x="381.0755172413823" y="527.9781537802514" as="sourcePoint" />
            <mxPoint x="321.0755172413823" y="537.9781537802514" as="targetPoint" />
          </mxGeometry>
        </mxCell>
        <mxCell id="bn8k4Fqg-3GPeQ3cdz_c-103" style="edgeStyle=orthogonalEdgeStyle;rounded=0;orthogonalLoop=1;jettySize=auto;html=1;exitX=0.5;exitY=1;exitDx=0;exitDy=0;" parent="1" source="bn8k4Fqg-3GPeQ3cdz_c-93" target="bn8k4Fqg-3GPeQ3cdz_c-93" edge="1">
          <mxGeometry relative="1" as="geometry" />
        </mxCell>
        <mxCell id="bn8k4Fqg-3GPeQ3cdz_c-105" value="" style="endArrow=none;html=1;rounded=0;entryX=0.5;entryY=1;entryDx=0;entryDy=0;exitX=0.5;exitY=0;exitDx=0;exitDy=0;" parent="1" source="bn8k4Fqg-3GPeQ3cdz_c-143" target="bn8k4Fqg-3GPeQ3cdz_c-74" edge="1">
          <mxGeometry width="50" height="50" relative="1" as="geometry">
            <mxPoint x="710" y="340" as="sourcePoint" />
            <mxPoint x="650" y="350" as="targetPoint" />
          </mxGeometry>
        </mxCell>
        <mxCell id="bn8k4Fqg-3GPeQ3cdz_c-106" value="" style="endArrow=none;html=1;rounded=0;entryX=0.5;entryY=1;entryDx=0;entryDy=0;" parent="1" target="bn8k4Fqg-3GPeQ3cdz_c-137" edge="1">
          <mxGeometry width="50" height="50" relative="1" as="geometry">
            <mxPoint x="527.5141958041959" y="520" as="sourcePoint" />
            <mxPoint x="540" y="490" as="targetPoint" />
          </mxGeometry>
        </mxCell>
        <mxCell id="bn8k4Fqg-3GPeQ3cdz_c-107" value="N" style="text;html=1;align=center;verticalAlign=middle;whiteSpace=wrap;rounded=0;" parent="1" vertex="1">
          <mxGeometry x="687" y="306" width="20" height="10" as="geometry" />
        </mxCell>
        <mxCell id="bn8k4Fqg-3GPeQ3cdz_c-108" value="N" style="text;html=1;align=center;verticalAlign=middle;whiteSpace=wrap;rounded=0;" parent="1" vertex="1">
          <mxGeometry x="512.11" y="510" width="20" height="10" as="geometry" />
        </mxCell>
        <mxCell id="bn8k4Fqg-3GPeQ3cdz_c-114" value="Musteri Order" style="rhombus;whiteSpace=wrap;html=1;" parent="1" vertex="1">
          <mxGeometry x="160" y="510" width="105" height="80" as="geometry" />
        </mxCell>
        <mxCell id="bn8k4Fqg-3GPeQ3cdz_c-115" value="" style="endArrow=none;html=1;rounded=0;entryX=0.834;entryY=1.034;entryDx=0;entryDy=0;exitX=0.5;exitY=0;exitDx=0;exitDy=0;entryPerimeter=0;" parent="1" source="bn8k4Fqg-3GPeQ3cdz_c-114" target="bn8k4Fqg-3GPeQ3cdz_c-63" edge="1">
          <mxGeometry width="50" height="50" relative="1" as="geometry">
            <mxPoint x="210" y="410" as="sourcePoint" />
            <mxPoint x="260" y="360" as="targetPoint" />
          </mxGeometry>
        </mxCell>
        <mxCell id="bn8k4Fqg-3GPeQ3cdz_c-116" value="" style="endArrow=none;html=1;rounded=0;entryX=0;entryY=0.75;entryDx=0;entryDy=0;exitX=1;exitY=0.5;exitDx=0;exitDy=0;" parent="1" source="bn8k4Fqg-3GPeQ3cdz_c-114" target="bn8k4Fqg-3GPeQ3cdz_c-91" edge="1">
          <mxGeometry width="50" height="50" relative="1" as="geometry">
            <mxPoint x="240" y="490" as="sourcePoint" />
            <mxPoint x="210" y="325" as="targetPoint" />
          </mxGeometry>
        </mxCell>
        <mxCell id="bn8k4Fqg-3GPeQ3cdz_c-117" value="1" style="text;html=1;align=center;verticalAlign=middle;whiteSpace=wrap;rounded=0;" parent="1" vertex="1">
          <mxGeometry x="205" y="320" width="20" height="10" as="geometry" />
        </mxCell>
        <mxCell id="bn8k4Fqg-3GPeQ3cdz_c-118" value="N" style="text;html=1;align=center;verticalAlign=middle;whiteSpace=wrap;rounded=0;" parent="1" vertex="1">
          <mxGeometry x="472.11" y="536" width="20" height="10" as="geometry" />
        </mxCell>
        <mxCell id="bn8k4Fqg-3GPeQ3cdz_c-122" value="&lt;u&gt;ProductID&lt;/u&gt;" style="ellipse;whiteSpace=wrap;html=1;flipV=1;flipH=1;" parent="1" vertex="1">
          <mxGeometry x="610" y="172.5" width="70" height="50" as="geometry" />
        </mxCell>
        <mxCell id="bn8k4Fqg-3GPeQ3cdz_c-123" value="Telefon" style="ellipse;whiteSpace=wrap;html=1;" parent="1" vertex="1">
          <mxGeometry x="50" y="356" width="80" height="30" as="geometry" />
        </mxCell>
        <mxCell id="bn8k4Fqg-3GPeQ3cdz_c-124" value="" style="endArrow=none;html=1;rounded=0;exitX=1;exitY=0;exitDx=0;exitDy=0;entryX=0.25;entryY=1;entryDx=0;entryDy=0;" parent="1" source="bn8k4Fqg-3GPeQ3cdz_c-123" target="bn8k4Fqg-3GPeQ3cdz_c-63" edge="1">
          <mxGeometry width="50" height="50" relative="1" as="geometry">
            <mxPoint x="160" y="406" as="sourcePoint" />
            <mxPoint x="160" y="340" as="targetPoint" />
          </mxGeometry>
        </mxCell>
        <mxCell id="bn8k4Fqg-3GPeQ3cdz_c-125" value="CustomerID" style="ellipse;whiteSpace=wrap;html=1;flipV=1;flipH=1;" parent="1" vertex="1">
          <mxGeometry x="452.11" y="600" width="70" height="30" as="geometry" />
        </mxCell>
        <mxCell id="bn8k4Fqg-3GPeQ3cdz_c-126" value="" style="endArrow=none;html=1;rounded=0;entryX=0.25;entryY=1;entryDx=0;entryDy=0;" parent="1" source="bn8k4Fqg-3GPeQ3cdz_c-125" target="bn8k4Fqg-3GPeQ3cdz_c-91" edge="1">
          <mxGeometry width="50" height="50" relative="1" as="geometry">
            <mxPoint x="391.0755172413823" y="537.9781537802514" as="sourcePoint" />
            <mxPoint x="535.11" y="570" as="targetPoint" />
          </mxGeometry>
        </mxCell>
        <mxCell id="bn8k4Fqg-3GPeQ3cdz_c-128" value="OrderItem" style="rounded=0;whiteSpace=wrap;html=1;" parent="1" vertex="1">
          <mxGeometry x="640" y="451.25" width="70" height="30" as="geometry" />
        </mxCell>
        <mxCell id="bn8k4Fqg-3GPeQ3cdz_c-129" value="ProductID" style="ellipse;whiteSpace=wrap;html=1;flipV=1;flipH=1;" parent="1" vertex="1">
          <mxGeometry x="740" y="448.75" width="85" height="35" as="geometry" />
        </mxCell>
        <mxCell id="bn8k4Fqg-3GPeQ3cdz_c-130" value="" style="endArrow=none;html=1;rounded=0;entryX=0;entryY=0.5;entryDx=0;entryDy=0;" parent="1" source="bn8k4Fqg-3GPeQ3cdz_c-128" target="bn8k4Fqg-3GPeQ3cdz_c-129" edge="1">
          <mxGeometry width="50" height="50" relative="1" as="geometry">
            <mxPoint x="720" y="471.25" as="sourcePoint" />
            <mxPoint x="755.005" y="488.4200000000001" as="targetPoint" />
          </mxGeometry>
        </mxCell>
        <mxCell id="bn8k4Fqg-3GPeQ3cdz_c-131" value="" style="endArrow=none;html=1;rounded=0;entryX=0;entryY=1;entryDx=0;entryDy=0;exitX=1;exitY=0;exitDx=0;exitDy=0;" parent="1" source="bn8k4Fqg-3GPeQ3cdz_c-128" target="bn8k4Fqg-3GPeQ3cdz_c-132" edge="1">
          <mxGeometry width="50" height="50" relative="1" as="geometry">
            <mxPoint x="717.5" y="437.5" as="sourcePoint" />
            <mxPoint x="637.5" y="354.5" as="targetPoint" />
          </mxGeometry>
        </mxCell>
        <mxCell id="bn8k4Fqg-3GPeQ3cdz_c-132" value="&lt;u&gt;OrderItemID&lt;/u&gt;" style="ellipse;whiteSpace=wrap;html=1;flipV=1;flipH=1;" parent="1" vertex="1">
          <mxGeometry x="740" y="407.25" width="70" height="34" as="geometry" />
        </mxCell>
        <mxCell id="bn8k4Fqg-3GPeQ3cdz_c-135" value="OrderID" style="ellipse;whiteSpace=wrap;html=1;flipV=1;flipH=1;" parent="1" vertex="1">
          <mxGeometry x="725" y="496.25" width="85" height="35" as="geometry" />
        </mxCell>
        <mxCell id="bn8k4Fqg-3GPeQ3cdz_c-136" value="" style="endArrow=none;html=1;rounded=0;entryX=0;entryY=0.5;entryDx=0;entryDy=0;exitX=0.75;exitY=1;exitDx=0;exitDy=0;" parent="1" source="bn8k4Fqg-3GPeQ3cdz_c-128" target="bn8k4Fqg-3GPeQ3cdz_c-135" edge="1">
          <mxGeometry width="50" height="50" relative="1" as="geometry">
            <mxPoint x="695" y="513.75" as="sourcePoint" />
            <mxPoint x="740.005" y="535.9200000000001" as="targetPoint" />
          </mxGeometry>
        </mxCell>
        <mxCell id="bn8k4Fqg-3GPeQ3cdz_c-137" value="Oreder orderItem" style="rhombus;whiteSpace=wrap;html=1;" parent="1" vertex="1">
          <mxGeometry x="490" y="440" width="77.11" height="58.5" as="geometry" />
        </mxCell>
        <mxCell id="bn8k4Fqg-3GPeQ3cdz_c-139" value="" style="endArrow=none;html=1;rounded=0;entryX=0;entryY=0.5;entryDx=0;entryDy=0;exitX=1;exitY=0.5;exitDx=0;exitDy=0;" parent="1" source="bn8k4Fqg-3GPeQ3cdz_c-141" target="bn8k4Fqg-3GPeQ3cdz_c-128" edge="1">
          <mxGeometry width="50" height="50" relative="1" as="geometry">
            <mxPoint x="537.5141958041959" y="530" as="sourcePoint" />
            <mxPoint x="539" y="479" as="targetPoint" />
          </mxGeometry>
        </mxCell>
        <mxCell id="bn8k4Fqg-3GPeQ3cdz_c-142" value="" style="endArrow=none;html=1;rounded=0;entryX=0;entryY=0.5;entryDx=0;entryDy=0;exitX=1;exitY=0.5;exitDx=0;exitDy=0;" parent="1" source="bn8k4Fqg-3GPeQ3cdz_c-137" target="bn8k4Fqg-3GPeQ3cdz_c-128" edge="1">
          <mxGeometry width="50" height="50" relative="1" as="geometry">
            <mxPoint x="567" y="469" as="sourcePoint" />
            <mxPoint x="640" y="466" as="targetPoint" />
          </mxGeometry>
        </mxCell>
        <mxCell id="bn8k4Fqg-3GPeQ3cdz_c-141" value="N" style="text;html=1;align=center;verticalAlign=middle;whiteSpace=wrap;rounded=0;" parent="1" vertex="1">
          <mxGeometry x="620" y="454.25" width="20" height="10" as="geometry" />
        </mxCell>
        <mxCell id="bn8k4Fqg-3GPeQ3cdz_c-143" value="&lt;font style=&quot;font-size: 10px;&quot;&gt;Urun OrderItm&lt;/font&gt;" style="rhombus;whiteSpace=wrap;html=1;" parent="1" vertex="1">
          <mxGeometry x="645" y="360" width="80" height="50" as="geometry" />
        </mxCell>
        <mxCell id="bn8k4Fqg-3GPeQ3cdz_c-144" value="N" style="text;html=1;align=center;verticalAlign=middle;whiteSpace=wrap;rounded=0;" parent="1" vertex="1">
          <mxGeometry x="649" y="342" width="20" height="10" as="geometry" />
        </mxCell>
        <mxCell id="bn8k4Fqg-3GPeQ3cdz_c-145" value="N" style="text;html=1;align=center;verticalAlign=middle;whiteSpace=wrap;rounded=0;" parent="1" vertex="1">
          <mxGeometry x="663" y="441.25" width="20" height="10" as="geometry" />
        </mxCell>
        <mxCell id="bn8k4Fqg-3GPeQ3cdz_c-146" value="" style="endArrow=none;html=1;rounded=0;entryX=0.5;entryY=1;entryDx=0;entryDy=0;exitX=0.633;exitY=0.04;exitDx=0;exitDy=0;exitPerimeter=0;" parent="1" source="bn8k4Fqg-3GPeQ3cdz_c-128" target="bn8k4Fqg-3GPeQ3cdz_c-143" edge="1">
          <mxGeometry width="50" height="50" relative="1" as="geometry">
            <mxPoint x="580" y="440" as="sourcePoint" />
            <mxPoint x="630" y="390" as="targetPoint" />
          </mxGeometry>
        </mxCell>
        <mxCell id="bn8k4Fqg-3GPeQ3cdz_c-147" value="Payment" style="rounded=0;whiteSpace=wrap;html=1;" parent="1" vertex="1">
          <mxGeometry x="302.11" y="389.5" width="65" height="30" as="geometry" />
        </mxCell>
        <mxCell id="bn8k4Fqg-3GPeQ3cdz_c-148" value="PayemntID" style="ellipse;whiteSpace=wrap;html=1;" parent="1" vertex="1">
          <mxGeometry x="412.11" y="364.5" width="70" height="25" as="geometry" />
        </mxCell>
        <mxCell id="bn8k4Fqg-3GPeQ3cdz_c-149" value="" style="endArrow=none;html=1;rounded=0;entryX=0;entryY=0.5;entryDx=0;entryDy=0;exitX=1;exitY=0.25;exitDx=0;exitDy=0;" parent="1" source="bn8k4Fqg-3GPeQ3cdz_c-147" target="bn8k4Fqg-3GPeQ3cdz_c-148" edge="1">
          <mxGeometry width="50" height="50" relative="1" as="geometry">
            <mxPoint x="352.11" y="389.5" as="sourcePoint" />
            <mxPoint x="402.11" y="339.5" as="targetPoint" />
          </mxGeometry>
        </mxCell>
        <mxCell id="bn8k4Fqg-3GPeQ3cdz_c-151" value="" style="endArrow=none;html=1;rounded=0;entryX=0;entryY=0.5;entryDx=0;entryDy=0;exitX=1;exitY=0.5;exitDx=0;exitDy=0;" parent="1" source="bn8k4Fqg-3GPeQ3cdz_c-150" edge="1">
          <mxGeometry width="50" height="50" relative="1" as="geometry">
            <mxPoint x="377.11" y="432.5" as="sourcePoint" />
            <mxPoint x="422.1099999999958" y="412" as="targetPoint" />
          </mxGeometry>
        </mxCell>
        <mxCell id="bn8k4Fqg-3GPeQ3cdz_c-155" value="PaymentMethod" style="ellipse;whiteSpace=wrap;html=1;" parent="1" vertex="1">
          <mxGeometry x="230" y="361.5" width="90" height="25" as="geometry" />
        </mxCell>
        <mxCell id="bn8k4Fqg-3GPeQ3cdz_c-156" value="" style="endArrow=none;html=1;rounded=0;entryX=0.5;entryY=1;entryDx=0;entryDy=0;exitX=0;exitY=0.5;exitDx=0;exitDy=0;" parent="1" source="bn8k4Fqg-3GPeQ3cdz_c-147" target="bn8k4Fqg-3GPeQ3cdz_c-155" edge="1">
          <mxGeometry width="50" height="50" relative="1" as="geometry">
            <mxPoint x="206.11" y="366.5" as="sourcePoint" />
            <mxPoint x="300.05500000000006" y="386.5" as="targetPoint" />
          </mxGeometry>
        </mxCell>
        <mxCell id="bn8k4Fqg-3GPeQ3cdz_c-157" value="PaymentDate" style="ellipse;whiteSpace=wrap;html=1;" parent="1" vertex="1">
          <mxGeometry x="312.11" y="350.5" width="80" height="23" as="geometry" />
        </mxCell>
        <mxCell id="bn8k4Fqg-3GPeQ3cdz_c-158" value="" style="endArrow=none;html=1;rounded=0;entryX=0.5;entryY=1;entryDx=0;entryDy=0;exitX=0.711;exitY=0.009;exitDx=0;exitDy=0;exitPerimeter=0;" parent="1" source="bn8k4Fqg-3GPeQ3cdz_c-147" target="bn8k4Fqg-3GPeQ3cdz_c-157" edge="1">
          <mxGeometry width="50" height="50" relative="1" as="geometry">
            <mxPoint x="255" y="366.5" as="sourcePoint" />
            <mxPoint x="300" y="336.5" as="targetPoint" />
          </mxGeometry>
        </mxCell>
        <mxCell id="bn8k4Fqg-3GPeQ3cdz_c-159" value="Amount" style="ellipse;whiteSpace=wrap;html=1;" parent="1" vertex="1">
          <mxGeometry x="220" y="394.5" width="45" height="20" as="geometry" />
        </mxCell>
        <mxCell id="bn8k4Fqg-3GPeQ3cdz_c-160" value="" style="endArrow=none;html=1;rounded=0;entryX=1;entryY=0.5;entryDx=0;entryDy=0;exitX=0;exitY=0.5;exitDx=0;exitDy=0;" parent="1" source="bn8k4Fqg-3GPeQ3cdz_c-147" target="bn8k4Fqg-3GPeQ3cdz_c-159" edge="1">
          <mxGeometry width="50" height="50" relative="1" as="geometry">
            <mxPoint x="220" y="429.5" as="sourcePoint" />
            <mxPoint x="265" y="399.5" as="targetPoint" />
          </mxGeometry>
        </mxCell>
        <mxCell id="bn8k4Fqg-3GPeQ3cdz_c-161" value="" style="endArrow=none;html=1;rounded=0;entryX=0;entryY=0.5;entryDx=0;entryDy=0;exitX=1;exitY=0.5;exitDx=0;exitDy=0;" parent="1" source="bn8k4Fqg-3GPeQ3cdz_c-147" target="bn8k4Fqg-3GPeQ3cdz_c-150" edge="1">
          <mxGeometry width="50" height="50" relative="1" as="geometry">
            <mxPoint x="367" y="404.5" as="sourcePoint" />
            <mxPoint x="422.1099999999958" y="412" as="targetPoint" />
          </mxGeometry>
        </mxCell>
        <mxCell id="bn8k4Fqg-3GPeQ3cdz_c-150" value="OrderID" style="ellipse;whiteSpace=wrap;html=1;" parent="1" vertex="1">
          <mxGeometry x="410" y="394.5" width="50" height="25" as="geometry" />
        </mxCell>
        <mxCell id="bn8k4Fqg-3GPeQ3cdz_c-162" value="Payment Order" style="rhombus;whiteSpace=wrap;html=1;" parent="1" vertex="1">
          <mxGeometry x="286.06" y="448.75" width="93.94" height="58.75" as="geometry" />
        </mxCell>
        <mxCell id="bn8k4Fqg-3GPeQ3cdz_c-164" value="" style="endArrow=none;html=1;rounded=0;exitX=0.5;exitY=0;exitDx=0;exitDy=0;" parent="1" source="bn8k4Fqg-3GPeQ3cdz_c-162" edge="1">
          <mxGeometry width="50" height="50" relative="1" as="geometry">
            <mxPoint x="270" y="500" as="sourcePoint" />
            <mxPoint x="335" y="420" as="targetPoint" />
          </mxGeometry>
        </mxCell>
        <mxCell id="bn8k4Fqg-3GPeQ3cdz_c-165" value="" style="endArrow=none;html=1;rounded=0;entryX=0;entryY=0;entryDx=0;entryDy=0;exitX=1;exitY=0.5;exitDx=0;exitDy=0;" parent="1" source="bn8k4Fqg-3GPeQ3cdz_c-162" target="bn8k4Fqg-3GPeQ3cdz_c-91" edge="1">
          <mxGeometry width="50" height="50" relative="1" as="geometry">
            <mxPoint x="230" y="390" as="sourcePoint" />
            <mxPoint x="280" y="340" as="targetPoint" />
          </mxGeometry>
        </mxCell>
        <mxCell id="y7GTqV-I0oT5N2LyaM_e-1" value="Yazar" style="ellipse;whiteSpace=wrap;html=1;flipV=1;flipH=1;" vertex="1" parent="1">
          <mxGeometry x="770" y="240" width="80" height="30" as="geometry" />
        </mxCell>
        <mxCell id="y7GTqV-I0oT5N2LyaM_e-2" value="" style="endArrow=none;html=1;rounded=0;exitX=0;exitY=1;exitDx=0;exitDy=0;entryX=1;entryY=0.75;entryDx=0;entryDy=0;" edge="1" parent="1" source="y7GTqV-I0oT5N2LyaM_e-1" target="bn8k4Fqg-3GPeQ3cdz_c-74">
          <mxGeometry width="50" height="50" relative="1" as="geometry">
            <mxPoint x="490.2486129643971" y="533.6551724137921" as="sourcePoint" />
            <mxPoint x="736" y="292" as="targetPoint" />
          </mxGeometry>
        </mxCell>
        <mxCell id="y7GTqV-I0oT5N2LyaM_e-3" value="Tur" style="ellipse;whiteSpace=wrap;html=1;flipV=1;flipH=1;" vertex="1" parent="1">
          <mxGeometry x="570" y="210" width="42.11" height="30" as="geometry" />
        </mxCell>
        <mxCell id="y7GTqV-I0oT5N2LyaM_e-4" value="" style="endArrow=none;html=1;rounded=0;exitX=1;exitY=0.5;exitDx=0;exitDy=0;entryX=0;entryY=0.25;entryDx=0;entryDy=0;" edge="1" parent="1" source="y7GTqV-I0oT5N2LyaM_e-3" target="bn8k4Fqg-3GPeQ3cdz_c-74">
          <mxGeometry width="50" height="50" relative="1" as="geometry">
            <mxPoint x="286.35861296439714" y="544.1551724137921" as="sourcePoint" />
            <mxPoint x="532.11" y="302.5" as="targetPoint" />
          </mxGeometry>
        </mxCell>
        <mxCell id="y7GTqV-I0oT5N2LyaM_e-9" value="&lt;b&gt;&lt;font style=&quot;font-size: 20px;&quot;&gt;Soru4&lt;/font&gt;&lt;/b&gt;" style="text;html=1;align=center;verticalAlign=middle;whiteSpace=wrap;rounded=0;fillColor=#f8cecc;strokeColor=#b85450;" vertex="1" parent="1">
          <mxGeometry x="380" y="193" width="110" height="67" as="geometry" />
        </mxCell>
      </root>
    </mxGraphModel>
  </diagram>
</mxfile>
